<svg width="420" height="280" viewBox="0 0 420 280" fill="none" xmlns="http://www.w3.org/2000/svg">
<path d="M34.9381 5.64795L1.14333 69.8962C-1.87523 75.6461 1.34019 82.5209 7.77104 84.2708L137.635 119.582C142.294 120.832 147.281 118.957 149.775 115.02L210.015 20.0226L45.8311 0.0855995C41.3033 -0.414387 36.9723 1.77306 34.9381 5.64795ZM418.886 69.8962L385.091 5.64795C383.057 1.77306 378.66 -0.476886 374.132 0.0855995L210.015 20.0226L270.189 115.083C272.682 119.02 277.67 120.895 282.329 119.645L412.192 84.3333C418.689 82.5209 421.839 75.6461 418.886 69.8962ZM279.376 140.019C268.286 140.019 257.852 134.395 252.209 125.395L210.015 58.7715L167.886 125.395C162.177 134.457 151.743 140.082 140.653 140.082C137.7 140.082 134.747 139.707 131.926 138.894L42.0251 114.395V225.642C42.0251 234.829 48.5872 242.829 57.9054 245.017L199.778 278.828C206.471 280.391 213.492 280.391 220.12 278.828L362.124 245.017C371.442 242.767 378.004 234.767 378.004 225.642V114.395L288.103 138.832C285.282 139.644 282.329 140.019 279.376 140.019Z" fill="#474563"/>
</svg>
